#!OML:ASF F:\VICON\USERDATA\INSTALL\rory3\rory3.ASF
:FULLY-SPECIFIED
:DEGREES
927
root -0.843239 16.4166 1.26386 41.2789 -47.7237 17.4022
lowerback 40.165 1.05829 11.2891
upperback 7.39735 6.14533 6.68388
thorax -10.6622 2.19716 -1.0896
lowerneck -25.9248 -2.76041 3.26886
upperneck 9.70314 -4.11901 -4.94791
head 6.92278 -2.38628 -2.70236
rclavicle 6.36111e-015 -7.31528e-014
rhumerus 41.3631 -16.0619 -59.4694
rradius 51.1883
rwrist 47.5264
rhand -62.4973 -11.6897
rfingers 7.12502
rthumb -34.5259 -38.3552
lclavicle 6.36111e-015 -7.31528e-014
lhumerus 81.5924 -39.0596 50.0301
lradius 39.2738
lwrist -3.83491
lhand -21.9633 30.7346
lfingers 7.12502
lthumb 4.44423 60.6679
rfemur -90.8126 -0.885808 -12.7113
rtibia 47.2005
rfoot 1.34154 13.8537
rtoes 17.9925
lfemur -71.5038 17.0441 -49.3642
ltibia 42.5958
lfoot -16.7173 12.0021
ltoes -19.9333
928
root -0.845871 16.4114 1.26204 41.3943 -47.5785 17.5149
lowerback 40.1463 1.14115 11.4681
upperback 7.31959 6.31817 6.61193
thorax -10.701 2.2664 -1.32621
lowerneck -26.1886 -2.67121 3.67756
upperneck 9.67085 -4.10215 -5.24486
head 6.93852 -2.3954 -2.86953
rclavicle 6.36111e-014 -5.00937e-014
rhumerus 41.3619 -16.7254 -59.4371
rradius 50.6788
rwrist 48.0038
rhand -65.0625 -12.566
rfingers 7.12502
rthumb -36.9567 -38.6416
lclavicle 6.36111e-014 -5.00937e-014
lhumerus 81.8027 -39.4072 49.7944
lradius 39.3977
lwrist -3.65739
lhand -22.5597 31.1216
lfingers 7.12502
lthumb 3.86826 61.0662
rfemur -90.9391 -1.06256 -12.8374
rtibia 47.2776
rfoot 1.37833 13.5758
rtoes 19.3112
lfemur -71.7296 16.9022 -49.5036
ltibia 42.662
lfoot -16.6047 11.911
ltoes -20.4685
929
root -0.845973 16.4048 1.26104 41.3629 -47.5295 17.6868
lowerback 40.2159 1.28845 11.4591
upperback 7.2681 6.50912 6.5917
thorax -10.7692 2.34537 -1.42463
lowerneck -26.4035 -2.57196 4.10832
upperneck 9.57135 -4.07248 -5.61059
head 6.9236 -2.4054 -3.05918
rclavicle 0 -3.97569e-016
rhumerus 41.7307 -17.4519 -59.6643
rradius 49.5535
rwrist 48.689
rhand -67.2236 -12.9917
rfingers 7.12502
rthumb -38.9977 -38.5124
lclavicle 0 -3.97569e-016
lhumerus 82.2111 -39.7028 49.3336
lradius 39.499
lwrist -3.0252
lhand -22.7992 31.3693
lfingers 7.12502
lthumb 3.63698 61.3181
rfemur -91.0051 -1.17835 -12.998
rtibia 47.3347
rfoot 1.30074 13.53
rtoes 19.4225
lfemur -71.8107 16.7859 -49.6181
ltibia 42.6966
lfoot -16.5215 11.8308
ltoes -20.0861
930
root -0.843613 16.4014 1.26202 41.3114 -47.4882 17.8126
lowerback 40.2992 1.43222 11.4993
upperback 7.23529 6.71495 6.59456
thorax -10.8153 2.42976 -1.52762
lowerneck -26.579 -2.49022 4.36069
upperneck 9.45058 -4.01305 -5.93326
head 6.90231 -2.40414 -3.20149
rclavicle -2.8625e-014 -4.37326e-015
rhumerus 42.2484 -18.2223 -59.8957
rradius 48.1239
rwrist 49.1948
rhand -68.1643 -11.6394
rfingers 7.12502
rthumb -39.8839 -36.9004
lclavicle -2.8625e-014 -4.37326e-015
lhumerus 82.5487 -40.0256 49.065
lradius 39.5825
lwrist -2.50537
lhand -22.2641 30.8248
lfingers 7.12502
lthumb 4.15371 60.764
rfemur -91.0094 -1.27599 -13.0378
rtibia 47.3552
rfoot 1.05476 13.7518
rtoes 17.9376
lfemur -71.8102 16.6461 -49.6244
ltibia 42.6963
lfoot -16.452 11.8571
ltoes -19.7397
931
root -0.83915 16.4053 1.26218 41.2827 -47.2968 17.7756
lowerback 40.4549 1.47547 11.7992
upperback 7.19352 6.91335 6.60924
thorax -10.8601 2.50099 -1.74097
lowerneck -26.8083 -2.40479 4.50208
upperneck 9.43577 -3.91813 -6.19076
head 6.93031 -2.38308 -3.30431
rclavicle -1.27222e-014 5.96354e-014
rhumerus 42.6211 -18.8731 -59.7614
rradius 46.6499
rwrist 49.2268
rhand -67.7182 -10.9868
rfingers 7.12502
rthumb -39.4638 -36.3724
lclavicle -1.27222e-014 5.96354e-014
lhumerus 82.8103 -40.3117 48.8728
lradius 39.583
lwrist -2.1531
lhand -21.5209 30.0454
lfingers 7.12502
lthumb 4.87143 59.9694
rfemur -90.8799 -1.30463 -12.9623
rtibia 47.349
rfoot 0.915746 13.7925
rtoes 17.077
lfemur -71.6848 16.4769 -49.3771
ltibia 42.6663
lfoot -16.3539 11.9727
ltoes -19.8865
932
root -0.833549 16.4085 1.26172 41.3019 -47.1002 17.7388
lowerback 40.5693 1.49581 12.0546
upperback 7.13312 7.06351 6.59694
thorax -10.9172 2.55253 -1.9421
lowerneck -27.2205 -2.21919 4.78768
upperneck 9.60187 -3.72828 -6.50867
head 7.04863 -2.31732 -3.448
rclavicle 6.99722e-014 -9.89948e-014
rhumerus 42.928 -19.4644 -59.6399
rradius 45.1436
rwrist 49.099
rhand -66.0035 -10.4408
rfingers 7.12502
rthumb -37.8463 -36.2817
lclavicle 6.99722e-014 -9.89948e-014
lhumerus 83.0532 -40.5296 48.5578
lradius 39.6054
lwrist -1.55518
lhand -21.4023 30.1294
lfingers 7.12502
lthumb 4.98593 60.0507
rfemur -90.7851 -1.3839 -12.9013
rtibia 47.3526
rfoot 0.9068 13.7164
rtoes 17.3715
lfemur -71.5869 16.2858 -49.1381
ltibia 42.6062
lfoot -16.2839 12.066
ltoes -19.7991
933
root -0.825668 16.4123 1.2599 41.3224 -46.903 17.7122
lowerback 40.587 1.53531 12.2253
upperback 7.1277 7.18324 6.61041
thorax -10.8966 2.60031 -2.05805
lowerneck -27.7267 -1.96522 5.17097
upperneck 9.79467 -3.47348 -6.90403
head 7.19288 -2.22633 -3.62878
rclavicle 2.8625e-014 -5.60573e-014
rhumerus 43.3958 -20.144 -59.7066
rradius 43.5158
rwrist 48.8437
rhand -63.1651 -6.68228
rfingers 7.12502
rthumb -35.1595 -33.2009
lclavicle 2.8625e-014 -5.60573e-014
lhumerus 83.0665 -40.7572 48.5885
lradius 39.6153
lwrist -1.31313
lhand -21.5168 30.3352
lfingers 7.12502
lthumb 4.87533 60.2591
rfemur -90.7031 -1.47646 -12.8824
rtibia 47.3642
rfoot 0.955922 13.6016
rtoes 18.1079
lfemur -71.5077 16.0979 -48.9335
ltibia 42.506
lfoot -16.2268 12.1746
ltoes -19.8999
934
root -0.816656 16.4192 1.2561 41.1925 -46.7764 17.8259
lowerback 40.6412 1.6266 12.228
upperback 7.11163 7.3124 6.65859
thorax -10.9296 2.65323 -2.06221
lowerneck -28.1021 -1.68969 5.47654
upperneck 9.87967 -3.15099 -7.36952
head 7.28933 -2.11398 -3.80691
rclavicle -1.59028e-014 -4.17448e-014
rhumerus 43.9476 -20.7592 -59.7529
rradius 41.7035
rwrist 48.2522
rhand -59.865 -4.45776
rfingers 7.12502
rthumb -32.0233 -31.659
lclavicle -1.59028e-014 -4.17448e-014
lhumerus 82.9707 -41.0552 48.8684
lradius 39.5129
lwrist -1.43447
lhand -21.4508 30.4115
lfingers 7.12502
lthumb 4.93912 60.3339
rfemur -90.5687 -1.59467 -12.8986
rtibia 47.3601
rfoot 0.955914 13.5664
rtoes 18.1636
lfemur -71.3393 15.9307 -48.8476
ltibia 42.3498
lfoot -16.1777 12.2239
ltoes -19.9004
935
root -0.807226 16.4276 1.25379 41.0363 -46.705 17.9332
lowerback 40.7392 1.73379 12.2163
upperback 7.10647 7.45694 6.69753
thorax -10.9639 2.71249 -2.07626
lowerneck -28.5695 -1.39908 5.65228
upperneck 9.98024 -2.7778 -7.75182
head 7.41435 -1.9762 -3.93235
rclavicle -2.8625e-014 -1.10922e-013
rhumerus 44.7417 -21.3416 -59.8645
rradius 39.638
rwrist 47.2124
rhand -56.7815 -6.03407
rfingers 7.12502
rthumb -29.0828 -33.7835
lclavicle -2.8625e-014 -1.10922e-013
lhumerus 83.0703 -41.3092 49.0599
lradius 39.249
lwrist -1.46745
lhand -21.3571 30.2609
lfingers 7.12502
lthumb 5.02955 60.1812
rfemur -90.4109 -1.65508 -12.9176
rtibia 47.3103
rfoot 0.884359 13.5552
rtoes 17.5059
lfemur -71.114 15.7614 -48.7311
ltibia 42.1616
lfoot -16.0958 12.3547
ltoes -19.9024
936
root -0.79693 16.4421 1.25214 40.7911 -46.6414 18.07
lowerback 40.8438 1.80034 12.1762
upperback 7.14667 7.53084 6.71401
thorax -10.9545 2.74599 -2.07038
lowerneck -29.1291 -1.02195 5.87187
upperneck 10.0688 -2.30553 -8.15509
head 7.55857 -1.79418 -4.06048
rclavicle -4.45278e-014 -1.55052e-014
rhumerus 45.5602 -21.8353 -59.9518
rradius 37.5874
rwrist 45.6756
rhand -54.2949 -8.28776
rfingers 7.12502
rthumb -26.7056 -36.4234
lclavicle -4.45278e-014 -1.55052e-014
lhumerus 83.17 -41.4784 49.1345
lradius 39.0499
lwrist -1.47732
lhand -21.3486 30.1799
lfingers 7.12502
lthumb 5.0378 60.1
rfemur -90.1751 -1.71223 -12.9012
rtibia 47.2113
rfoot 0.977332 13.5528
rtoes 17.4541
lfemur -70.7461 15.5004 -48.491
ltibia 41.9638
lfoot -16.0458 12.6137
ltoes -19.681
937
root -0.785105 16.4531 1.2522 40.5817 -46.5486 18.1673
lowerback 40.9243 1.78225 12.2375
upperback 7.18808 7.52911 6.64869
thorax -10.9135 2.74728 -2.16874
lowerneck -29.7965 -0.50597 6.1663
upperneck 10.2717 -1.67452 -8.53891
head 7.77322 -1.53281 -4.17653
rclavicle 2.8625e-014 5.80451e-014
rhumerus 46.2306 -22.2728 -59.9671
rradius 35.6629
rwrist 43.916
rhand -52.5558 -8.52527
rfingers 7.12502
rthumb -25.0402 -36.9039
lclavicle 2.8625e-014 5.80451e-014
lhumerus 83.3685 -41.6125 48.8868
lradius 38.8603
lwrist -1.38466
lhand -21.4104 30.3901
lfingers 7.12502
lthumb 4.97812 60.3116
rfemur -89.932 -1.79564 -12.8411
rtibia 47.1064
rfoot 1.0879 13.5807
rtoes 17.6569
lfemur -70.4685 15.3605 -48.4122
ltibia 41.81
lfoot -15.9481 12.7804
ltoes -19.9178
938
root -0.772947 16.4598 1.25158 40.3488 -46.4238 18.2197
lowerback 41.0837 1.7393 12.3137
upperback 7.21126 7.51984 6.59305
thorax -10.9192 2.74011 -2.26347
lowerneck -30.4034 0.0390764 6.2816
upperneck 10.4778 -0.969995 -8.68462
head 7.99145 -1.21714 -4.1655
rclavicle 3.49861e-014 -2.78299e-015
rhumerus 46.4213 -22.6017 -59.3603
rradius 34.0044
rwrist 41.8904
rhand -51.2671 -7.23307
rfingers 7.12502
rthumb -23.8047 -35.7783
lclavicle 3.49861e-014 -2.78299e-015
lhumerus 83.5586 -41.7168 48.5309
lradius 38.6444
lwrist -1.13477
lhand -21.5382 30.3566
lfingers 7.12502
lthumb 4.85466 60.2809
rfemur -89.6482 -1.83925 -12.7732
rtibia 47.0214
rfoot 1.1782 13.6071
rtoes 17.8474
lfemur -70.2007 15.3065 -48.333
ltibia 41.713
lfoot -15.9663 12.7912
ltoes -19.537
939
root -0.762183 16.4609 1.25274 40.2118 -46.2013 18.1879
lowerback 41.186 1.69023 12.4413
upperback 7.20902 7.53126 6.61516
thorax -10.9379 2.7386 -2.30729
lowerneck -30.8437 0.595718 6.29544
upperneck 10.518 -0.230429 -8.71413
head 8.13227 -0.874273 -4.08006
rclavicle 1.90833e-014 7.15625e-014
rhumerus 45.8955 -22.608 -57.6902
rradius 32.7604
rwrist 39.1629
rhand -49.9307 -7.60326
rfingers 7.12502
rthumb -22.5226 -36.3097
lclavicle 1.90833e-014 7.15625e-014
lhumerus 83.4109 -41.8081 48.6301
lradius 38.4915
lwrist -1.25509
lhand -20.9867 30.173
lfingers 7.12502
lthumb 5.3872 60.0845
rfemur -89.4013 -1.88625 -12.6874
rtibia 46.9861
rfoot 1.23897 13.5794
rtoes 18.3853
lfemur -70.0471 15.3393 -48.2844
ltibia 41.6728
lfoot -15.986 12.6486
ltoes -19.3101
940
root -0.751624 16.4611 1.25394 40.1068 -45.9539 18.1647
lowerback 41.2182 1.65697 12.5304
upperback 7.19999 7.54497 6.68666
thorax -10.9549 2.73971 -2.27951
lowerneck -31.1924 1.18644 6.43335
upperneck 10.3748 0.549218 -9.03922
head 8.20393 -0.541093 -4.1043
rclavicle -2.8625e-014 1.98785e-015
rhumerus 45.728 -22.6415 -56.7701
rradius 31.5335
rwrist 37.5641
rhand -48.484 -10.0749
rfingers 7.12502
rthumb -21.1334 -38.9432
lclavicle -2.8625e-014 1.98785e-015
lhumerus 83.2868 -41.904 48.6486
lradius 38.4133
lwrist -0.887119
lhand -21.0022 30.208
lfingers 7.12502
lthumb 5.37224 60.1199
rfemur -89.2049 -1.9686 -12.5685
rtibia 46.9935
rfoot 1.29657 13.5363
rtoes 18.8821
lfemur -69.9584 15.3774 -48.2883
ltibia 41.6536
lfoot -15.9364 12.4752
ltoes -19.5066
941
root -0.738255 16.4662 1.25074 39.9946 -45.6561 18.1934
lowerback 41.1782 1.58798 12.6432
upperback 7.21672 7.50618 6.72335
thorax -10.9143 2.72388 -2.27588
lowerneck -31.51 1.85435 6.76944
upperneck 10.089 1.37574 -9.55289
head 8.23399 -0.198319 -4.21471
rclavicle 3.49861e-014 5.4467e-014
rhumerus 46.2953 -23.1039 -57.3373
rradius 30.3228
rwrist 37.7568
rhand -47.5977 -11.0678
rfingers 7.12502
rthumb -20.2818 -40.0289
lclavicle 3.49861e-014 5.4467e-014
lhumerus 83.3715 -41.9637 48.4413
lradius 38.2776
lwrist -0.628493
lhand -20.9994 30.6519
lfingers 7.12502
lthumb 5.37489 60.5637
rfemur -89.0216 -2.1279 -12.3748
rtibia 47.0299
rfoot 1.26975 13.533
rtoes 18.5231
lfemur -69.8327 15.2791 -48.2196
ltibia 41.607
lfoot -15.8686 12.3387
ltoes -19.4403
